{
  "accessors": [
    {
      "bufferView": 2,
      "componentType": 5126,
      "count": 9090,
      "max": [
        0.4288100004196167,
        0.4288100004196167,
        0.6242499947547913
      ],
      "min": [
        -0.4288100004196167,
        -0.4288100004196167,
        -0.314410001039505
      ],
      "type": "VEC3"
    },
    {
      "bufferView": 2,
      "byteOffset": 109080,
      "componentType": 5126,
      "count": 9090,
      "max": [
        0.9953445792198181,
        0.9953445792198181,
        1.0
      ],
      "min": [
        -0.9953445792198181,
        -0.9953445792198181,
        -1.0
      ],
      "type": "VEC3"
    },
    {
      "bufferView": 1,
      "componentType": 5126,
      "count": 9090,
      "max": [
        0.9967600107192993,
        0.9967600107192993
      ],
      "min": [
        0.0032399999909102917,
        0.0032399999909102917
      ],
      "type": "VEC2"
    },
    {
      "bufferView": 0,
      "componentType": 5125,
      "count": 35328,
      "type": "SCALAR"
    },
    {
      "bufferView": 3,
      "componentType": 5126,
      "count": 2,
      "max": [
        0.25
      ],
      "min": [
        0.041669998317956924
      ],
      "type": "SCALAR"
    },
    {
      "bufferView": 4,
      "componentType": 5126,
      "count": 2,
      "max": [
        0.0,
        0.0,
        0.3134300112724304
      ],
      "min": [
        0.0,
        0.0,
        0.3134300112724304
      ],
      "type": "VEC3"
    },
    {
      "bufferView": 3,
      "byteOffset": 8,
      "componentType": 5126,
      "count": 6,
      "max": [
        0.25
      ],
      "min": [
        0.041669998317956924
      ],
      "type": "SCALAR"
    },
    {
      "bufferView": 5,
      "componentType": 5126,
      "count": 6,
      "max": [
        0.0,
        0.0,
        0.875190019607544,
        1.0
      ],
      "min": [
        0.0,
        0.0,
        -0.875190019607544,
        0.48379001021385193
      ],
      "type": "VEC4"
    },
    {
      "bufferView": 3,
      "byteOffset": 32,
      "componentType": 5126,
      "count": 2,
      "max": [
        0.25
      ],
      "min": [
        0.041669998317956924
      ],
      "type": "SCALAR"
    },
    {
      "bufferView": 4,
      "byteOffset": 24,
      "componentType": 5126,
      "count": 2,
      "max": [
        1.0,
        1.0,
        1.0
      ],
      "min": [
        1.0,
        1.0,
        1.0
      ],
      "type": "VEC3"
    }
  ],
  "animations": [
    {
      "channels": [
        {
          "sampler": 0,
          "target": {
            "node": 2,
            "path": "translation"
          }
        },
        {
          "sampler": 1,
          "target": {
            "node": 2,
            "path": "rotation"
          }
        },
        {
          "sampler": 2,
          "target": {
            "node": 2,
            "path": "scale"
          }
        }
      ],
      "name": "CircleAction",
      "samplers": [
        {
          "input": 4,
          "interpolation": "LINEAR",
          "output": 5
        },
        {
          "input": 6,
          "interpolation": "LINEAR",
          "output": 7
        },
        {
          "input": 8,
          "interpolation": "LINEAR",
          "output": 9
        }
      ]
    }
  ],
  "asset": {
    "extras": {
      "author": "Ed C (https://sketchfab.com/edc)",
      "license": "CC-BY-4.0 (http://creativecommons.org/licenses/by/4.0/)",
      "source": "https://sketchfab.com/3d-models/totem-9730202deef7423bb0e5159fc2682a40",
      "title": "Totem"
    },
    "generator": "Sketchfab-12.65.0",
    "version": "2.0"
  },
  "bufferViews": [
    {
      "buffer": 0,
      "byteLength": 141312,
      "name": "floatBufferViews",
      "target": 34963
    },
    {
      "buffer": 0,
      "byteLength": 72720,
      "byteOffset": 141312,
      "byteStride": 8,
      "name": "floatBufferViews",
      "target": 34962
    },
    {
      "buffer": 0,
      "byteLength": 218160,
      "byteOffset": 214032,
      "byteStride": 12,
      "name": "floatBufferViews",
      "target": 34962
    },
    {
      "buffer": 0,
      "byteLength": 40,
      "byteOffset": 432192,
      "name": "floatBufferViews"
    },
    {
      "buffer": 0,
      "byteLength": 48,
      "byteOffset": 432232,
      "byteStride": 12,
      "name": "floatBufferViews"
    },
    {
      "buffer": 0,
      "byteLength": 96,
      "byteOffset": 432280,
      "byteStride": 16,
      "name": "floatBufferViews"
    }
  ],
  "buffers": [
    {
      "byteLength": 432376,
      "uri": "scene.bin"
    }
  ],
  "materials": [
    {
      "doubleSided": true,
      "name": "Material",
      "pbrMetallicRoughness": {
        "baseColorFactor": [
          0.78,
          0.78,
          0.78,
          1.0
        ],
        "roughnessFactor": 0.0
      }
    }
  ],
  "meshes": [
    {
      "name": "Circle_0",
      "primitives": [
        {
          "attributes": {
            "NORMAL": 1,
            "POSITION": 0,
            "TEXCOORD_0": 2
          },
          "indices": 3,
          "material": 0,
          "mode": 4
        }
      ]
    }
  ],
  "nodes": [
    {
      "children": [
        1
      ],
      "matrix": [
        2.1673150062561035,
        0.0,
        0.0,
        0.0,
        0.0,
        4.812406043122283e-16,
        -2.1673150062561035,
        0.0,
        0.0,
        2.1673150062561035,
        4.812406043122283e-16,
        0.0,
        0.0,
        0.0,
        0.0,
        1.0
      ],
      "name": "Sketchfab_model"
    },
    {
      "children": [
        2,
        4
      ],
      "name": "Root"
    },
    {
      "children": [
        3
      ],
      "name": "Circle",
      "translation": [
        0.0,
        0.0,
        0.3134300112724304
      ]
    },
    {
      "mesh": 0,
      "name": "Circle_0"
    },
    {
      "children": [
        5
      ],
      "matrix": [
        1.0,
        0.0,
        0.0,
        0.0,
        0.0,
        1.0,
        0.0,
        0.0,
        0.0,
        0.0,
        1.0,
        0.0,
        0.0,
        0.0,
        1.0596999999999999,
        1.0
      ],
      "name": "Point"
    },
    {
      "name": "Point"
    }
  ],
  "scene": 0,
  "scenes": [
    {
      "name": "Sketchfab_Scene",
      "nodes": [
        0
      ]
    }
  ]
}
